#!OML:ASF H:\Terrain\Patient Classification 1\Takeo\Monday\TakeoMonday.ASF
:FULLY-SPECIFIED
:DEGREES
1
root 9.93245 17.6232 -3.58907 -9.3999 -20.7942 4.50124
lowerback 1.00826 0.405095 0.764278
upperback 1.68797 0.533948 0.554632
thorax 1.1644 0.271155 0.139626
lowerneck -12.6377 2.91356 -1.78238
upperneck 4.70865 4.11152 0.714888
head 3.74511 2.0283 0.850064
rclavicle -4.29872e-014 -2.14687e-014
rhumerus -2.05106 63.8529 -97.3992
rradius 44.8328
rwrist -40.6166
rhand -46.9568 21.6461
rfingers 7.12502
rthumb -19.6658 -7.37922
lclavicle -4.29872e-014 -2.14687e-014
lhumerus 3.80295 -19.3468 95.3417
lradius 56.1672
lwrist 45.5834
lhand -45.8588 27.9917
lfingers 7.12502
lthumb -18.6099 57.1215
rfemur 8.77692 -2.88611 17.033
rtibia 19.6068
rfoot -21.3115 -20.774
rtoes 1.7592
lfemur -6.86091 -1.7213 -21.7088
ltibia 14.8557
lfoot 2.14359 16.0548
ltoes -8.22809
2
root 9.93002 17.6228 -3.59329 -9.2726 -20.7376 4.11503
lowerback 0.947839 0.451091 1.2484
upperback 1.65546 0.594756 0.637315
thorax 1.16951 0.306669 -0.0464688
lowerneck -12.6353 2.71664 -2.15928
upperneck 4.79392 3.89024 0.970009
head 3.76633 1.92311 0.988235
rclavicle 1.33683e-014 -8.74653e-015
rhumerus -1.07234 63.1789 -96.5246
rradius 44.8362
rwrist -39.9708
rhand -46.9426 21.6568
rfingers 7.12502
rthumb -19.6521 -7.36993
lclavicle 1.33683e-014 -8.74653e-015
lhumerus 4.43311 -19.8971 95.0764
lradius 56.5663
lwrist 45.7036
lhand -45.8028 28.0941
lfingers 7.12502
lthumb -18.556 57.229
rfemur 9.13633 -2.89913 17.4677
rtibia 18.8722
rfoot -20.8574 -20.9883
rtoes 1.06095
lfemur -7.38634 -1.74798 -21.2972
ltibia 15.8287
lfoot 1.29622 16.2063
ltoes -6.31143
3
root 9.92628 17.6235 -3.61016 -8.68239 -20.8425 3.01172
lowerback 0.80532 0.411918 2.35187
upperback 1.59402 0.538334 0.848111
thorax 1.19525 0.289671 -0.447559
lowerneck -12.7998 2.75817 -1.99452
upperneck 4.94504 3.91304 1.08404
head 3.85328 1.94233 1.00539
rclavicle 7.95139e-016 1.59028e-014
rhumerus 0.192362 62.6464 -95.7437
rradius 44.7977
rwrist -39.3301
rhand -47.0907 22.1318
rfingers 7.12502
rthumb -19.7945 -6.88025
lclavicle 7.95139e-016 1.59028e-014
lhumerus 5.23201 -20.2278 94.5407
lradius 56.8319
lwrist 45.4996
lhand -45.9524 28.1726
lfingers 7.12502
lthumb -18.6999 57.2938
rfemur 9.12048 -2.75315 18.7649
rtibia 18.2773
rfoot -20.62 -21.2589
rtoes 1.82409
lfemur -8.15652 -1.68826 -20.0716
ltibia 16.7955
lfoot 0.331194 16.3895
ltoes -4.13054
4
root 9.91559 17.6267 -3.63203 -8.16117 -21.0242 2.32297
lowerback 0.660756 0.415104 2.84205
upperback 1.45261 0.53834 1.0524
thorax 1.13456 0.292071 -0.512156
lowerneck -12.6984 2.97937 -1.71142
upperneck 5.00346 4.16338 1.04405
head 3.85579 2.06987 0.957895
rclavicle 5.27276e-014 -7.15625e-015
rhumerus 1.37873 62.2896 -94.9321
rradius 44.8692
rwrist -38.8
rhand -46.7868 21.2191
rfingers 7.12502
rthumb -19.5023 -7.82286
lclavicle 5.27276e-014 -7.15625e-015
lhumerus 5.99298 -20.5219 93.9204
lradius 57.2178
lwrist 45.5762
lhand -46.5492 27.8867
lfingers 7.12502
lthumb -19.2738 56.9516
rfemur 8.94293 -2.43978 19.697
rtibia 17.7915
rfoot -20.4706 -21.5586
rtoes 2.99891
lfemur -8.83662 -1.44063 -19.2291
ltibia 17.407
lfoot 0.305609 16.1429
ltoes -5.34429
5
root 9.90679 17.6271 -3.63956 -8.02733 -21.1604 2.00702
lowerback 0.658121 0.457871 3.08762
upperback 1.29963 0.598112 1.16986
thorax 0.982515 0.32063 -0.529856
lowerneck -11.9987 3.08749 -1.6812
upperneck 4.64884 4.2942 1.01178
head 3.5908 2.13649 0.926299
rclavicle -3.16068e-014 -7.95139e-016
rhumerus 2.32401 62.0877 -94.1551
rradius 44.9895
rwrist -38.458
rhand -46.4581 20.5151
rfingers 7.12502
rthumb -19.1863 -8.55853
lclavicle -3.16068e-014 -7.95139e-016
lhumerus 6.58592 -20.7956 93.422
lradius 57.6552
lwrist 45.6904
lhand -46.9016 28.1326
lfingers 7.12502
lthumb -19.6126 57.1633
rfemur 9.0044 -2.18297 20.1546
rtibia 17.552
rfoot -20.4203 -21.7447
rtoes 2.83029
lfemur -9.04568 -1.45191 -18.8237
ltibia 17.7247
lfoot 0.606205 15.9137
ltoes -7.96207
